# xmcd
# 
# Track frame offsets:
#	150
#	23560
#	38040
#	55500
#	74480
#	88576
#	109043
#	132016
#	152916
#	170967
#	185263
#	202966
#	220389
#	233617
#	251425
#	265868
#	278933
#	295783
#	311266
#	328890
#
# Disc length: 4565 seconds
#
# Revision: 1
# Processed by: cddbd v1.5.1PL0 Copyright (c) Steve Scherf et al.
# Submitted via: Audio-CD-Archiv 3.00.487
#
DISCID=1b11d314
DTITLE=Marvin Gaye - Let's get it on (Deluxe Edition) - Disc 2
DYEAR=1900
DGENRE=blues
TTITLE0=Let's get it on (Demo)
TTITLE1=Let's get it on (Part 2)
TTITLE2=Please stay
TTITLE3=If I should die tonight
TTITLE4=Come get to this (Alternate mix)
TTITLE5=Distant lover  (Alternate mix)
TTITLE6=You shure love to ball  (Alternate mix)
TTITLE7=Just to keep you satitsfied (A capella w./ alternate vocals)
TTITLE8=The Originals - Just to keep you satisfied
TTITLE9=The Monitors - Just to keep you satisfied
TTITLE10=Where art we going? (Alternate mix)
TTITLE11=The world is X-rated (Alternate mix)
TTITLE12=I'm gonna give you respect
TTITLE13=Try it you like it
TTITLE14=You are that special one
TTITLE15=You can make it baby
TTITLE16=Running from love (Instrumental - Version 1)
TTITLE17=Mandota (Instrumental)
TTITLE18=Running from love (Instrumental - Version 12
TTITLE19=Come get to this (Live From Oakland)
EXTD=
EXTT0=
EXTT1=
EXTT2=
EXTT3=
EXTT4=
EXTT5=
EXTT6=
EXTT7=
EXTT8=
EXTT9=
EXTT10=
EXTT11=
EXTT12=
EXTT13=
EXTT14=
EXTT15=
EXTT16=
EXTT17=
EXTT18=
EXTT19=
PLAYORDER=
